<mxfile host="app.diagrams.net" agent="Mozilla/5.0 (Windows NT 10.0; Win64; x64) AppleWebKit/537.36 (KHTML, like Gecko) Chrome/133.0.0.0 Safari/537.36" version="26.0.11">
  <diagram name="PÃ¡gina-1" id="UDUt4dwMki-aAwRvslpq">
    <mxGraphModel dx="880" dy="468" grid="1" gridSize="10" guides="1" tooltips="1" connect="1" arrows="1" fold="1" page="1" pageScale="1" pageWidth="827" pageHeight="1169" math="0" shadow="0">
      <root>
        <mxCell id="0" />
        <mxCell id="1" parent="0" />
        <mxCell id="BzCf6zOfXmueHMT2T-eW-42" style="edgeStyle=orthogonalEdgeStyle;rounded=0;orthogonalLoop=1;jettySize=auto;html=1;entryX=-0.033;entryY=0.833;entryDx=0;entryDy=0;entryPerimeter=0;exitX=1.043;exitY=0.627;exitDx=0;exitDy=0;exitPerimeter=0;fontColor=#0A22FF;strokeColor=#0A22FF;" parent="1" source="BzCf6zOfXmueHMT2T-eW-59" target="BzCf6zOfXmueHMT2T-eW-14" edge="1">
          <mxGeometry relative="1" as="geometry">
            <mxPoint x="230" y="300" as="targetPoint" />
          </mxGeometry>
        </mxCell>
        <mxCell id="BzCf6zOfXmueHMT2T-eW-1" value="Khronos Seguros" style="image;html=1;image=img/lib/clip_art/computers/Server_Tower_128x128.png;labelPosition=center;verticalLabelPosition=top;align=center;verticalAlign=bottom;" parent="1" vertex="1">
          <mxGeometry x="30" y="225" width="70" height="150" as="geometry" />
        </mxCell>
        <mxCell id="BzCf6zOfXmueHMT2T-eW-3" value="API REST" style="ellipse;shape=cloud;whiteSpace=wrap;html=1;align=center;verticalAlign=top;labelPosition=center;verticalLabelPosition=bottom;" parent="1" vertex="1">
          <mxGeometry x="658" y="260" width="130" height="110" as="geometry" />
        </mxCell>
        <mxCell id="BzCf6zOfXmueHMT2T-eW-10" value="ASO" style="sketch=0;points=[[0,0,0],[0.25,0,0],[0.5,0,0],[0.75,0,0],[1,0,0],[0,1,0],[0.25,1,0],[0.5,1,0],[0.75,1,0],[1,1,0],[0,0.25,0],[0,0.5,0],[0,0.75,0],[1,0.25,0],[1,0.5,0],[1,0.75,0]];outlineConnect=0;fontColor=#232F3E;fillColor=#8C4FFF;strokeColor=#ffffff;dashed=0;verticalLabelPosition=top;verticalAlign=bottom;align=center;html=1;fontSize=12;fontStyle=0;aspect=fixed;shape=mxgraph.aws4.resourceIcon;resIcon=mxgraph.aws4.entity_resolution;labelPosition=center;" parent="1" vertex="1">
          <mxGeometry x="684" y="71" width="78" height="78" as="geometry" />
        </mxCell>
        <mxCell id="BzCf6zOfXmueHMT2T-eW-46" style="edgeStyle=orthogonalEdgeStyle;rounded=0;orthogonalLoop=1;jettySize=auto;html=1;exitX=1;exitY=0.75;exitDx=0;exitDy=0;exitPerimeter=0;entryX=0;entryY=0.75;entryDx=0;entryDy=0;entryPerimeter=0;strokeColor=#0A22FF;" parent="1" source="BzCf6zOfXmueHMT2T-eW-11" target="BzCf6zOfXmueHMT2T-eW-10" edge="1">
          <mxGeometry relative="1" as="geometry">
            <mxPoint x="670" y="110" as="targetPoint" />
          </mxGeometry>
        </mxCell>
        <mxCell id="BzCf6zOfXmueHMT2T-eW-51" style="edgeStyle=orthogonalEdgeStyle;rounded=0;orthogonalLoop=1;jettySize=auto;html=1;exitX=0;exitY=0.25;exitDx=0;exitDy=0;exitPerimeter=0;entryX=1;entryY=0.25;entryDx=0;entryDy=0;strokeColor=#66FF66;strokeWidth=2;" parent="1" source="BzCf6zOfXmueHMT2T-eW-11" target="BzCf6zOfXmueHMT2T-eW-29" edge="1">
          <mxGeometry relative="1" as="geometry" />
        </mxCell>
        <mxCell id="BzCf6zOfXmueHMT2T-eW-11" value="APX" style="sketch=0;points=[[0,0,0],[0.25,0,0],[0.5,0,0],[0.75,0,0],[1,0,0],[0,1,0],[0.25,1,0],[0.5,1,0],[0.75,1,0],[1,1,0],[0,0.25,0],[0,0.5,0],[0,0.75,0],[1,0.25,0],[1,0.5,0],[1,0.75,0]];outlineConnect=0;fontColor=#232F3E;fillColor=#DD344C;strokeColor=#ffffff;dashed=0;verticalLabelPosition=bottom;verticalAlign=top;align=center;html=1;fontSize=12;fontStyle=0;aspect=fixed;shape=mxgraph.aws4.resourceIcon;resIcon=mxgraph.aws4.honeycode;" parent="1" vertex="1">
          <mxGeometry x="430" y="71" width="78" height="78" as="geometry" />
        </mxCell>
        <mxCell id="BzCf6zOfXmueHMT2T-eW-41" style="edgeStyle=orthogonalEdgeStyle;rounded=0;orthogonalLoop=1;jettySize=auto;html=1;entryX=0.75;entryY=1;entryDx=0;entryDy=0;exitX=0.833;exitY=-0.017;exitDx=0;exitDy=0;exitPerimeter=0;strokeColor=#0A22FF;" parent="1" source="BzCf6zOfXmueHMT2T-eW-14" target="BzCf6zOfXmueHMT2T-eW-29" edge="1">
          <mxGeometry relative="1" as="geometry" />
        </mxCell>
        <mxCell id="BzCf6zOfXmueHMT2T-eW-53" style="edgeStyle=orthogonalEdgeStyle;rounded=0;orthogonalLoop=1;jettySize=auto;html=1;entryX=1;entryY=0.5;entryDx=0;entryDy=0;strokeWidth=2;strokeColor=#66FF66;" parent="1" source="BzCf6zOfXmueHMT2T-eW-14" target="BzCf6zOfXmueHMT2T-eW-1" edge="1">
          <mxGeometry relative="1" as="geometry" />
        </mxCell>
        <mxCell id="BzCf6zOfXmueHMT2T-eW-14" value="DataX" style="image;aspect=fixed;perimeter=ellipsePerimeter;html=1;align=center;shadow=0;dashed=0;fontColor=#000000;labelBackgroundColor=default;fontSize=12;spacingTop=3;image=data:image/png,iVBORw0KGgoAAAANSUhEUgAAAGQAAABkCAYAAABw4pVUAAAABGdBTUEAALGPC/xhBQAAHa1JREFUeAHlXQl8FEXW76qemTBAUA4FERYW/RlvBEFYEXcDyBU0HEsWvhV2IyywYExwBQ/8aVa8YFeIBBAQiEb98IMFRRQBgayirsitoEYBidy7QkyGZCYz013f/1VPD5N7MlfG7yuYdHd11atX71/v1auju5kS5yF7+aetKlwiyasrSQoTSYIpSUJhbfFLFKqSKARLVDiOqIdgzIGDQ2eKgzHuEFw5i+tCnauFjLNCmz2hcH7aDefjucos3pjLzv24vdut9xOMfixZF0pnhTMStmIIHRzTOTina3kPB7ofGC/T+/IoVEvQ0GV6fgz3ChRV2W5V2faFY7ufouh4CcRqo4fZcz5OcjPveF3RR+kKS0Jr9gmvKgjGtQkCNMEInPvBuggS0oIOBZmuGogmLaVQUdlaVbfkvzSua6FBsPH+mlWKOQfPPruztVstHyuEPg4t9zZTA/ytnDiDEI1WbQKDSF+rlxrBDS2R5/54Q1tIg6rnN+IkaJSeNA9RRn55/Fww/loTe8KqRSOvO4dbMQ8xB2TOnIIOLq8+UyhiIoRhl6bHJzwTFNmyAwRsgORr0UhL6SRQvnNT+EZ+UK1Z2IaJo3uUD6I2gAAtWT4ifHShoU5F5csVK5u7fFTXE7FEhViJSZg9e9tVTGiPoPLjIQybKeRADSBbb4Lit/kq9yhCFCK+EEAVIr4QiY4qnJcwC3MwjTsSLm9OnblS4byQKMr1xAouErnCL/FyvYuiqEmaEHAIGDkDSYILK4GhMJg5HzD+sgCIAQpSkPYw5kayfFWxPL9szE1HKFu0Q9QBmTPn40TNWfYUKp8B4auywrJUo6UawAQAgQYrON8LjwodL9t+idZqx4wZXcsiIYiH8g80c2sVfTVd9AM4yRB4d/DFCRgDCOMogZLg+DSJMw1eW65iT3hiZeq1EvxI8FMTjagC8nz25jG6LuahglcYrdI0Dyi2kulAxTnfAxc2397csuqxB+78T03MRjouY+XeyzxcHwu60FpxK/FY2VwGNBrcY4yd0hn7yytjur4ZaV5MelEB5O+ztnXSuHsFKthfJ2sthe+rHOyS0ZlSPC+FCVtm4yzvsccGfGUy1RjHjNf3Xu/VRLrOxCS42i18Jgvc45/PlEnA5DnfplotE1aMur4o0rxGHJC/zdqUKhQ9D0C0lEAQx6gEdZwwE+a44TxXWU7T5tbc6dOTf4p0pcKhl/XWvktdpSJDY3oW+G5lOA9GYyJA0Hf5QOLFqEN63uib14dTXtW8EQNk6dLdVsf3Z+cAiOkEAMke6i2P1MKoMkzlZYh/pkUbW+60ackXqjITT9dTVx9q7nE5M6DFs2BymxlgGPUwvDLjHN7Y/IRf3vTwsh7MEwn+IwJIzmNb2+q6a70uRC9T+FI7iDoN8lAbxvk6awLL+svjg45HgvFY0Zi66suObo8nB9MzIwmUSh0+NTT5U3baEnjq8tSbaKomrBA2IIsfebdLhSa2QDOukiD4Blt+QJhSBNWYMvPpwZvC4rSRM0/+7wODNaEtQePqJPsX4sc/sJQXR1SLMnDlqJuPhsNqWIAsmvHeLR6hvY+W045aDoFANtc8R+t525rQNH16dnz1E6EKjPoXR7mSJ4QYXgkMn6ag/meYog55Je2G/aGWETIgC2a821fRtHehGfBIOIAgu+RTYa64ETfzoWdTXgyVsXjO96c39mWif5wL/8tGZkyaZToa9S/lTB32yugbdlBUQ0NIgCya8dYtmod9KBjAMEEAJYM5/iNX+bCs51J2NpSZn1P6iW8e6C10bQM8xzZmvyLrb4JiVX/9yoiGa0qDAVk8/d0uuub+BGMJmClkl0CQqQI7nBdZrerA+59L+fbnJNxQef3z6gNJbq++GTXvJN1js//EEYI5o6pKn4b2KZgvDT68nLm+LcDYghztML8ElaAfrnAEDwctvMnt/1/AIKm9lNa10M7st0P8ByUEkAUdya1EP9NO05QtE9d/2Zaigg0yfzCJaZyhfVm0A2X2kh0ackosSEs4O2ixWe6c+vyw4mBohZMmZe2eLFR2fjg0YGYFxkR3vDe826dh0fFl/vMbX7R0M/0jWIkbLzo0uEnmi7OdTTrf1DfYcUrQGiK+KJoL2HtJBKERTLYGzMwpShFmXQfFAoxhG/ZfiWbwVLhCRB2WRQoM4uWl399cbGdNBklZUITfcuBcE70qjn05h6KDCUEB8vK0NalMiCwCQ/6kasiJkB9tXAzMmJsak2VQUaEtQF0Tg6lYbWnA/xkr54/Udj/U+IVjrz1ls/BBkNOPJCMpWGq4OBe6mJ6+5lBqMLQpfZ1h+bS1nTRd3wcMMDcF4qSGyMFU5oZ7d+fkF4fHxJsa9o99Q3VFe69OZoO4yRkb8+6oW/8niKQhJSHvC9P7H0JWcIkhKTkkgNwUVmyzWLrVNyFZr4YIr7YCqLc0EAcQKINQhLGaGSsw7t6wu6nO9EUhSSggE6bPN0UTDCpq+Ziun2GBZSaZLUaSQgcP+aGbFS29undFADs1ntYJyPI/rRkDwv0JBEmYSBBxwd6esmBEzAZ9ult5AuV2puJDDRCNk1stU0PN35B8K37f9UUI9m2SldQNymx4Xv3/uObgmLpo1QrI+pnrE+GMzCN0ibDUCgKDsSKbjafXRTSS9+5+Z/8NKPbBsGly/tcN93T9Pmw6QRJItCvpEG6RbMwQoSk/7KyZd9/6b2rtB2sF5Px551OKrl9BZpCISbRxjrXqKek5I2KyhgH3luke7xKUbg1SDrUl+7Jny24v1HYzGvE5I7pBRnyK0ZghONmwIUtdXKG53E/VVqaUddWbr0x68ypFY4VAU66B+6aYQY2vm7h09Kiq6aN1nbJ27wRsE1oeFn2oObS6z7sju/8rLDohZp74xv61WIWUU/dy/AY62FGpKVY16dUR1TdO1KghzKM/InRdlepGjJCpEkoZV61ZIfLV4GzoyNvA8Abtv9dWAHzCJY0FBvFk42oWrEzZRSsDbdGx2cOt1Oh6VwNkVfqqjhjHjverDjojMltQv2fuWzw8ZotLupv9De2gNZUcakAdzjRtoTwaav5I5Fs89qbjaNjPSNMPOZJcDdnq4yeuPdChahnVAPFoYgbMhM2weUZnDpU/39wqcqtmjtb10LV770T/8cdw6QuVZa65q0dJuHTCzZ9gs+Viru+82Y/QEc6SzeuFe1wlVAJk3fh1rREx0USRbhpmS89JW5wWkzXwSbt3W8nMVOEzhEv2/sYRt64OIWPEsyxOu+EC6iSHCVK2pCnS6ugTp637upIVqASIU3dij5Kw+xA0xh5ClF7avEnMtONkEYOGiuvCkQomE8ptKo/JmCNYPpvZ2QKAUCplS5nI69KFvdzroX1h/lAJEKQab2TAGJNQRM3wZ9mIGLm5d79z4Jco/3E/dyGewFvOfntEt2MhZo9KNnKDuRDLpGbQ6B2l0EieYbN5YIF+QFbf+1oS1KqnBILQMxCEO6DmBWaI5rnm9i5CyfbwymBf3Na6e3jT8+ExUGtu9MV5RoNHEp+MMfF4231Y6DIz+QHRdGU8De9lBhwIQXREe+7NS4vJjsKUdbtHo/AhJmOhHNHedMUiJmUnM28o+aOdZ+m93b+C0dljaAdkLEFBqQKy9wU/IDgZRXGU2EQP5/l0Ge3w+43ftcA0ck645bQucb26cXiPneHSiWZ+rrP8i43e6BqwZiJlT+VK+a8fs6q9U3GfNPbcUiyMF2e61WJrl5aXFvWNzylrd9M6R0YogrA7PUqP/afO9NpzktnLPW3BOz1DuBcV20dH1cL39bgr8zuWDe2Jg5Cxeu9lFS7lDEbvmKMFl/gPgwRz1PTKlVhTkYD8Y+zr93p17TVaVfGvd3C2e+zr43pGuw4pb+25FS1kJ5hSG1JWp5Mlrl9/UnTiFz/81BHzQwl15mWMXPYDqPw+9JF7sSd3H7+x6aEeyyZHZPtnnWXXcHNS/p5dWOrtQV27ueSLbUXj8v7rltctlB7bWfoRMmTSCC/yrnBeQFfRDNlC8M/X7qUxR1BgNKnwKj33nTre6/OTqt3lbo98VwfFnxDNka4PqtaHqqh5sR18/wX3v3rNO4iK7kV9oU1ir+Xy5l/02DC5PCiaYSSCeAsg3x4XZS3wKAzrB5IGIJjV7SdBQAy5YhQwAbZdnkTxz651+6ahJDBWd+hwqvTCb3YcO9H5+E+doQ0d604d3F0AQ7MR3ZG6O8Y9MpP37AX9s17zCnHtB6mp1b7/5o+nFgdHNbhUaH3bUcYM2TWQC0xmS4hkym3ZNHp1K4dS1olggMXCDfyY8LRmyg5KEK0wcu3uK1xCf7o2+jZow237Th/uveuEze50/wLprq0tbaTiUXU8ayAHpdcJXUk74yrd5dB+3Ar6T0aqDKLTVFh2lAqPB3bIarR/iUjnCasPtbKUK84kGnvI9V8kloNBwQoHvTa+LJJMVKVVIb0q7HysEjqcdhQnf3T0eOcfSq6GcIIzSVVohHPpFvqZogs/fnPOXX4dxOTs2rH1bCXCjv/fx3ctm/LqrkLoxo0+5QTLQrF4K5Is2HOIAaGhGfKIG7gqDKdS9eUdum7PYAyI0sx0No8ueu498XXvz082aep0d0F8S/NerI7Fbuf+orJzTpfw9kRD+A0a5jeiufrb5H9mR2VMAyUg03ijVABD8BgGMgCCV1aQdsg+BFjQPfQjUQNk9KfH7eWnz9KIXLny7IV/J/8T2nD8pyT0DdfHSvhmOdjY5jhRXrzvtKu0PYRzixkPYWB7kyVl6v75WPWLUgAgJGsKaJxY+4NqaFqSBQ/Z0JSJ1AvqXAgO7JCIGiDKsVOz7th7quS2Xce/ber0XIMCL6dSYxmcmvvw92XnT5Z6Xd2hDXdWKhuPQnPOR0z9dv7RSvERvoAi4BFvECWbBbnLAycNwR5UqRbUZOk+PeGhW6LGzH35Bw62LHZgByIb4CvSKDjKf+GoeP/jvLD7hLM4wa1r3VBcjf0TV9jEzG9f/DjK7IA8OwrVkMUY/TZihNIOgCjkoyNIwyWx4YxHbVFnyKZJ9EixfKx4969yr9U0zwAMjgaQ3QZAl0hWIvgHDxT9+4fyc1/96Con09y7btJ8dubhBa/VnSYyd7F/rkQnPHzaIeWvK80tiEokfTH6EFIfGDDV44hMsXVT6fGvjG+Qgn4LxejV6ucnT94mNAJHHwBGfgUBhrzbpMTjPFBUfr4M5qknqvebujnBXcZWZ3334pPT2YJ6k0YigUVRHW5UlhChLoPkDmwS4WUZe2XRqUlQCBxhU2MCSGDF2Jo04o52htBv9oGB+c2cJf/5NaZyAJDUoJsC09d0jjqUHXf9tOdseUk7TRFda0pTUxxksfOSDq3/gEYZMytq526HBzWG/AkOiJ3kD0Bwhk1bBhjmzWuc9pgDUlVQXbfIcdBGxNNP+axXTls4GwN0Q3sGoAIdzDxOzXP0WNm549AK8pTuNOODOaJd/qA04anp/8x2BZM+UmkS7Hg/i9snZqkgJH0GDQEyhJOJkpzsCmpmKVKsBUen986ss0j5hu+n7OqTk1Tqco34uvTMaOyZ7Qb+afzSsIA30DErS8k8+CLRjnkgfZQ9N1RDnsH9JcfLQXBIfHBBEae9TmhNfIeen2QVflFyyu3Rvd1RL2K/QQEZNGw2+13m1wsONihjhBLTm4ukzEkTELD1iuZtHBzrvA5aKcTAzKgVNMaRoMc9ILISisAqY6iBZU3/duH7oeYON59Th4yldQIlyF6eAws8zyzwwkgiD0CoY8E/mzO8h2LCZTaY/IuuerAjKtErmLTV0jC2KOtI7sJq8TGMYG6rT0MMM0WAQPYODNhhR02dJ8Tw07ke8fFApOvqYe7fmmw3hDY8qU1Xduub2ZA80UjLFe8l0jIRcVSEugpMoTiwZVc/a6iLcUM6fnoIHSQRjm1ouLliyiFU/HdphosdW26rlIbdoV2kYbporqjLOAtPkhVKDfGhROAAJP+2lCp04uJywdUZHcBkPaPuaqz+W7FYhj1wOLe02p1GiIA2yFl22bGjfOoq0KkXWjB3g8cODFNFfGHvEFSHxTUgGE/9VtaBGA4ioNIu1Cv1gW9yjgWRPCZJwFMS9RCy75Z/IXvMAOP5Gx0aYnhY0lzROb00Mo4DKhO0uUJaeiY9HZrxWTxVCRqRZHTkhs8ux4M6L+TMbsFbPiUIYN0ABiqStHlcfrN4qoDJy0vXTL8SfP7KvK7viLeKPpn57QI5mVlf2ljdp5dxksmCRtAMr1/uzKIV8sFrJp5HKyq6CIZky+otcfeNFYMNKQcTcsF7V4y9kfndwtkNoR+LtMxR1pfpOnb5m9ohSz02f+Lt58nbUlTBtps3CRg5UMHWIJkszv5gDsu/9Fs3a+wTzABNqDtN49wVmhfbrsiYwoHyDciBQQFxIwHBve20LmVqiQRHV5Ibh93aSw3WXGGs8b3KlBHoNypqp9Z4d+BIQbZo+P4ugq707cSRAYjNKjWE0pguMLDrvnH0yssaj+3qJQdprkrQi6cAjKhvga3OYf0xjy746DIs39LSsU/WBjCWBPtFQAa+M4H2lMrxiIkagOGsrPLDJPUXF90UeClz3d4VY17G1dHTv8v5OrqchEFdZ/QBAoz/fP0HSMElL5w7wfhshqEhiFSFslaaKiqL+hH64Y3P9CceQm7SzPYYId1eFy+oWAZW/T6oK01j3xOaLh+o9XtXJGpFrDX58gPCVSG3yZvzK74Mt25MXRnz7Tkmc4FHTXfW6V3h3ezzM79bsCQwT7ydw1xBluJWUzvMhq/ihf8mr35A+m2aWgi/eBdpiTRbpCD4Mbc73UzcqEe99sEgJhfezby31UONyl8whVeIdFO+JGN07jBXyudzp97h33blB4ToIYHUEokgcsrRoyImFQzPuzSY8qKVhswVWkefGukzdsCa0GYsy84mPzFuQ/b8gkvRcUyiRi6Dr1vAAwCvBTJdCRAhmq7CuzScpipJTdGVFhUV7ozATLE+172uUaSs1ctlp23Ceve0Q9kXqt+LrxiPRzyAt2O0kNNUUjuoQsypWqyrAjmtBMiAbX84h1ovp8hAO4fVxKyC0at9+7cCs8fmHJOfNXhXzGmxWO6ZdmTe8dhwEXop2YsKmkOmmaZM6WgMMfTlz93f61wg5UqA0A0LF3/DfhS32Y9QZngBrVyO842iJUuvy7oCbFUyV2g0+FQUH5dROH93YGXi9Vy/IDIwIm8lVVyuf8juwZ1gbTK3Ks/VAPn1lmnHMc+ST5klAcBBaoYOf9bm1JUdqxKI9rXTrY2C/CvxiU78Mbi3flcx2jyEQ//pFz7EUrM+S1YAcvTLVRf52Q/0PlGVdqWKmjeZzfo8cMBeM3M0CZEIvZlwuXLMNDE7ssrmCnb3lczDC5+PWflhFuStcOdgZN5MDif8HaHQmAIZ1xBqBKT/+5OPwCPIlYBQJiIkibGRm4YuGVwDnahELbphRju8leEOP3HGPmzfpPVk/3Wcn8yevXUwjOtIkh8FaXGktRG5T8/sc8SIrfy3RkAoSUJT+xNojaeNDshQNTkLrOlLYuUGeysqLporphxOTLCMTDuU7a5chfi8mg83Fzvul8ihg89UUQPH73RzJeGJ2riuFZA73pngUBX+oKElRj8i7Z+udHI7K/JqIxjJeNO7QrnFeGY+ZeKh+XH9HdvAul+44M2D7DoZ8jMtDKaomPLgww/fUetW3VoBIeLJ2/78JgaL24y5e0T4kIY/PXzLoCVR3UpD5gqq3hcdOB6O5KPu/2bet4EVjufzZ/66JRNPNg/3T0MRsyQ7IbZlPzKgztXLOgGRdBQxAWarWGqH7EcMWwhXeO4HQ15u6M6PoOVomitUY0rmkQUFQWds5IRzsj/oDQdorq/Plf0vAYOJz2JLAq93waxeQPpvv7+IcZFuoA0YfCtcuLZpunfD1qHL6LG0iAfDXPG50w/nrow48SgRfDZ76zW60DZgIO17Ix8+tQzNICFjpTP98Yf6F9VXdL2AEIF+W+9fD69rPnkLMoMPFOwLbqPr2pYt96zAXFPkQs6NmW0x1f5j1uEXH4kc1ehSmpO9pT3zeragwbYhE08WhSYPDaeIzX/y8bvWB8NBUIAQoRZX2x7G21J2mv0IHUlrhCY6CZd7846UNyL3KHOF0tl+SZvxsXyAJhhh1ZZm8XM7WjKPdzNAkC9gkLIh+VC/oSg7L2/X8uHa8laNJyCDDp/1f7ltmaj4BE81XYXipHstnyfBHDJ6loOsiW0QrT4GTfD/QMJcaIbL7dmMqWb57RAJAeRB8oFLdURYLX1mzRoQ9PMnDQKEytgxYHEXt65/igLbVnqdE9whgFNkUdWBAzZO+tl4RFSnUMMLj753DeSwBXaik/kWJXmEVLEf7Izgtj6PZg842hD6QZssk2jfrVOP4vVGGK2LUvlMiVQV/CH1xDf+vJr2yeahS0N7TMAs5GdwfGHmxt6Kpn8C97aTaaJk65ZmipVybhnSUDCo2g0GhDIlfzBtvwWfhoOBLPXZSelN+EBpg37lo01Dl0V1nEJ8NFaYN2NDJlO8H6L8NmSbZCcuGyZZKYDB2LCZ2QP3h8Jfg01WYCEFdy26RdeU93WGj4SBkuQJposeJzX6Fv52QoItPfnt9J8C8/1cz/OyCy4tcTjyYKKGUx1R74t1pTrjy2yYlx4y89mUkMAguYQFCBHw9Slb8EY02dHTIjGBQeBIYDg+2cDYlMEbp2yiqJ9rWDR9/WC8lm+J5vv0qgQElZENTzZAdgTTIgOnPz+sQX1GVXmEDQgRlN4Xc+PjxAo+TuwDgzwvakWUAEcAtY5brVmD1t8X9yt8xLIZFj34dkfsB6NlB9/HiX31wkE2ODqobCdT7alZzwbvTZn0qx6JbETC7klLrSWHvXN0rkwHi1BnMq6kxggEDNVD4WW6hT3T1H5pbvKa2Ly6PNTKrc4uaH7+/E8ZXkWfBc6bGQ0NlfC5tKZm4Hq+/er2D0+e3MMTalmB+SIGiEn0gwELUyF42FmlZaCNlcCY/jm9OZTxHLvVkhtv/Ute1luXut16BvqCLGh3K9moIKVA/iUYXC3GMT3z7/cENQI35VPfMeKAUIHbhi7shM9NrEAl+lOLgimr1rLIX4fKlOI9UcsUbskbuv6+r+pjNpr3V2asvh5fK0iHkCfBc23h4w99hE/LAzRDcL6Nc+uE+19IKYo0T1EBxGRy68CXxuB9XPOAxxX+lkYlkgmjRP5Kysg9eDdpvmpTVw1dc19MNkqvzlh92YUKMRYOyXhM/t0qQQjkCWyZfSDdw2DvtC7UB+9fkFrnFLpZ/1COUQWEGPr4nhWJTpfnKczeZsBdlJ9QqgwGEqGmpk2GmcMUKduLyAJ8A3B7k+bqjki9/zH/oc3NWPG5vtDYfti2koyy6C0QmAP0eYY+bTB5IcWm2Qh4iRp4zLXa+RMT5qbWurhE9Q03RB0Qk8FtQ5ZepXnxKSWVjYfW2PxCoASodGBLJGdcmgriDgtUaMGF2LuLdxTSW9jw+kHGj+LhyBKhqg5hczu8XYyX5ViOOhMruC1RVbREr84vwRJqFxj/JAgez0wyHPHsJGNWKWgIn8oB+j5NRXORcQY4xB+CG+YpHw3j+cm5I2pcA6dEkQyy1EgSrI9WwZCXO+A5j5nQmIkQjN0Eho6VNeeihybv+b02Q4CUNrAlm+bvIrjUEfuEGwg4MRhgloiGHwi6R3xwxQmtWI5NanP/lDuq2lYdShatEHNAzIpsHfFqa6/LNRagjEfb7GmaB2O21BCmAZbRci+2agIOVxCqcd8Aju77Be0TuHHfELi8D2FLAJCUTJH/PgGHOIwnduFvvmq1rPrDopGVdhQS+ViERgMksHKb7156LT6XMQ5SGQXzJN+S6m+14NDQBPQz9I9MSRXBmsI24w3zFwAEAUR5UKhfq3zXeGS6EGWutVhZ/riX0vy70AP5i+V5XAASWGFafXQrej/0F/3QnfaD3e9kCNIHBIkVLywkwZqCJyAME2ZoAMxNwDyTAQR1FRJMhRVBO7bDj9iOicDtY1eOjav1m7gDJBAcOt80enkrjxdag84ZWCRhwJYE4beDecLmb5YIeBLxgBiOBJjiwEcgHEiHI8eOeHZG46IQj7kVAoxCi9VSmLYiLa63Ev0v9Bpu84ZdM4kAAAAASUVORK5CYII=;" parent="1" vertex="1">
          <mxGeometry x="240" y="270" width="60" height="60" as="geometry" />
        </mxCell>
        <mxCell id="BzCf6zOfXmueHMT2T-eW-18" value="Smartsupervision" style="image;aspect=fixed;perimeter=ellipsePerimeter;html=1;align=center;shadow=0;dashed=0;fontColor=#4277BB;labelBackgroundColor=default;fontSize=12;spacingTop=3;image=img/lib/ibm/data/cloud.svg;" parent="1" vertex="1">
          <mxGeometry x="30" y="320" width="40" height="40" as="geometry" />
        </mxCell>
        <mxCell id="BzCf6zOfXmueHMT2T-eW-29" value="Servidor MÃ©xico" style="image;html=1;image=img/lib/clip_art/computers/Server_Tower_128x128.png;labelPosition=center;verticalLabelPosition=top;align=center;verticalAlign=bottom;" parent="1" vertex="1">
          <mxGeometry x="210" y="60" width="120" height="100" as="geometry" />
        </mxCell>
        <mxCell id="BzCf6zOfXmueHMT2T-eW-31" value=".CSV" style="verticalLabelPosition=top;html=1;verticalAlign=bottom;align=center;strokeColor=none;fillColor=#00BEF2;shape=mxgraph.azure.file;pointerEvents=1;labelPosition=center;labelBackgroundColor=#FFFFFF;gradientColor=none;shadow=1;" parent="1" vertex="1">
          <mxGeometry x="80" y="290" width="20" height="30" as="geometry" />
        </mxCell>
        <mxCell id="BzCf6zOfXmueHMT2T-eW-34" style="edgeStyle=orthogonalEdgeStyle;rounded=0;orthogonalLoop=1;jettySize=auto;html=1;entryX=0;entryY=0.75;entryDx=0;entryDy=0;entryPerimeter=0;exitX=1;exitY=0.75;exitDx=0;exitDy=0;strokeColor=#0A22FF;" parent="1" source="BzCf6zOfXmueHMT2T-eW-29" target="BzCf6zOfXmueHMT2T-eW-11" edge="1">
          <mxGeometry relative="1" as="geometry" />
        </mxCell>
        <mxCell id="BzCf6zOfXmueHMT2T-eW-37" value="JSON" style="verticalLabelPosition=bottom;html=1;verticalAlign=top;align=center;strokeColor=none;fillColor=#00BEF2;shape=mxgraph.azure.code_file;pointerEvents=1;fillStyle=solid;labelBackgroundColor=default;backgroundOutline=0;" parent="1" vertex="1">
          <mxGeometry x="500" y="95.63" width="20" height="28.75" as="geometry" />
        </mxCell>
        <mxCell id="BzCf6zOfXmueHMT2T-eW-44" value=".CSV" style="verticalLabelPosition=top;html=1;verticalAlign=bottom;align=center;strokeColor=none;fillColor=#00BEF2;shape=mxgraph.azure.file;pointerEvents=1;labelPosition=center;labelBackgroundColor=#FFFFFF;gradientColor=none;shadow=1;" parent="1" vertex="1">
          <mxGeometry x="240" y="119" width="20" height="30" as="geometry" />
        </mxCell>
        <mxCell id="BzCf6zOfXmueHMT2T-eW-47" style="edgeStyle=orthogonalEdgeStyle;rounded=0;orthogonalLoop=1;jettySize=auto;html=1;exitX=0.625;exitY=0.2;exitDx=0;exitDy=0;exitPerimeter=0;fillColor=#d5e8d4;strokeColor=#66FF66;strokeWidth=2;" parent="1" source="BzCf6zOfXmueHMT2T-eW-3" edge="1">
          <mxGeometry relative="1" as="geometry">
            <mxPoint x="740" y="149" as="targetPoint" />
            <Array as="points">
              <mxPoint x="739" y="210" />
              <mxPoint x="741" y="210" />
            </Array>
          </mxGeometry>
        </mxCell>
        <mxCell id="BzCf6zOfXmueHMT2T-eW-48" style="edgeStyle=orthogonalEdgeStyle;rounded=0;orthogonalLoop=1;jettySize=auto;html=1;exitX=0;exitY=0.25;exitDx=0;exitDy=0;exitPerimeter=0;entryX=1;entryY=0.25;entryDx=0;entryDy=0;entryPerimeter=0;strokeColor=#66FF66;strokeWidth=2;" parent="1" source="BzCf6zOfXmueHMT2T-eW-10" target="BzCf6zOfXmueHMT2T-eW-11" edge="1">
          <mxGeometry relative="1" as="geometry" />
        </mxCell>
        <mxCell id="BzCf6zOfXmueHMT2T-eW-52" style="edgeStyle=orthogonalEdgeStyle;rounded=0;orthogonalLoop=1;jettySize=auto;html=1;exitX=0.25;exitY=1;exitDx=0;exitDy=0;entryX=0.267;entryY=-0.067;entryDx=0;entryDy=0;entryPerimeter=0;strokeColor=#66FF66;strokeWidth=2;" parent="1" source="BzCf6zOfXmueHMT2T-eW-29" target="BzCf6zOfXmueHMT2T-eW-14" edge="1">
          <mxGeometry relative="1" as="geometry" />
        </mxCell>
        <mxCell id="BzCf6zOfXmueHMT2T-eW-4" value="" style="shape=image;verticalLabelPosition=bottom;labelBackgroundColor=default;verticalAlign=top;aspect=fixed;imageAspect=0;image=data:image/png,iVBORw0KGgoAAAANSUhEUgAAAOEAAADhCAMAAAAJbSJIAAAAdVBMVEX///8XeL0AcLoAc7sAbrnp8fjK3e0AbLgAdLsAcbr3+v1WlMmKstgQdrx5p9IAa7jc6PPy9/ufwN9lnc7R4e+80+iVudusyON/rNVxpNHG2evi7PW60ug5hsNYlsumxeFHjcYmf8A/icVpoM/Y5fEAZLUugsHAyS1HAAAKZElEQVR4nO2da5uqLhfGR8AElcostbPW/Pv+H/HJahpNFgLS9mkufi/2mz3ZuhU5rFNfXw6Hw+FwOBwOh8PhcDgcDofD4XA4HA6Hw+FwOBwOh8PxfsJwbAvexTzPzuWl8jj3qn00Xey2Y1tkk3kWEYIY5Xc8TjFGBJXx5E88UD++EEw9ARwTfMj9sQ0cyPIwY1wk7yGSzoqxTRzE9hAIn14DthjbyCFkvfo8D+3GttKc7R716vM8shzbTmM2qP8BXgk+dqY5ziQTTHOUfuqCsZgp6fN4NbalhuSBmkCPl2ObasZEVaBHz2PbakQiW+Tb4M9c8EulWfSu8CMX/KPKOvjgIxf8hCiP0euC/z22uQZMsbpAj3zgMXFLNAR6KBnbXn3W6tNMfUQc21x9EvlmhmOGyPXAjxim19eV78e2V59M8hZyPCuL3Wa5XE52xyLlsyCIxrZXnwoWyLxF+60Lt7vPWyyW8H6NrMc2zgoxOEjJR+5eulTQas+mY5tmhwReDMc2zRIraEuK8rFNs8QCeg0/1lnxSgpsaGg6tmW2OAETzWceA0VAUymajG2ZJUJoKkUfeEgS4oMKP9bv+8L3n1e4/PMKJ+CC7xR+Ck7h5+MUfj7vU5j42yu+Te/qcpetD2VZRuk0W6nG2t+gMJzk0+jiMYRuPkhvfyh2w0P/y+x0y2GilPPrPwwRVi5UAgywQrObP6kNqT2rzw391aBbOtVigEo/9kg3/scx8bLeB7FggEJaxGIkR/9lgREUiLyaw+O5kb7lIQDDm2yWyu/cGvbSUCwE9DCGxwvB0hgWx8FJ3zUyj4g06kBJBA9W/6ITdHpcUOyBS2KmEkbmiOqdrMNpfw4TDSCv4ApphA3lCjMmf3wNjYwf1QVuOPQWtWB0I/p0oZg/069wh9XTAOrneFH1HxTK+RNB3PlwUmpEtht0FfqRTgi5hpO1iiMv1DERvUaMJuIE0n46CnOFZL8OGPc/xkRvlmCn1l3LdG/7k1eFqVYA+QkXDKsXgZ7mnaOXhsSD2Qi9Xael0K+UZgIRKJKO1LDSHhr49Ht39BeJJy2FS2Y41m8GVbL9iEaGzxP2k641V56hBDQVrgLTsX6/FIc9loXRKPuJB87NXp2HWb8Kd8ME1msjtI3bGJr4SIWxpHA1ZCjc4Qx4isbz4N6iwonxdNyAU+G7GJvPX7k1hb4NgdfLifJxE5Pt5B3ObSkMweC4Juhg8xFer3e0pDAasOC0DCoFq6JiPrYQfrGjMDPfMrTMmYl2Nrn84rUjQ/LfwcSGwkErauNa4kOPbLHHQXVID/sAgSrZ2obCS/9LyClmGLc8Nh1b9sKJVJIdwlF8X17CyZqJ3pPadVNYUNg7RusvOhTZYpHF6z1G4tMxdDIHs0OuE29j+Uw6h8e6sq64eW0GjTE8/fJ7BHLE4obrJJzEvDv98wBy2YBJWtxr+/++m6cPTq9P7+dINp+xJ/CUSJkQsgbTN37ugcBNsSpf7iquwD1pBF2+k3+d/CxZnCK8bvrcwidfG+h5sG0oBg4b3wkK4alo1TrQEEkuSwXdue6869fek6s8PoUP1AY+b/Ae11APdF8Wv7ugQOZwg3w+ooqynFFE18IZ2Vyh9C3GJ4mrfEPv94ZyqRMXsEicnNwjz0ih7C1k8gTiZF+PVBRJAwYhYBE1TE7WVgimp9RGlH1flyJOehw0kEJ+kn8OQluhJCuce/0+wmK26vsTyKLAMFakqxDeonhEJfDSbybkPTessNZVOIEHqa0a7wr6AmRUj6SrsAAHqbVCjD00SjjrmzdF6CoEb7AX2CrxhtdbHqT6kWlNhVtwMaSCs7oZU8lyREm60pxwNBXmoH/B2iOUfMdNIwqqKM43yg9TU+EZur+mq5UAeJw8VWKGEE0XSkFzTYUV9KU2M/vBqaZ9TykL+Lm/0YqeQvj4bbMqscdP01KJgtNRLlJPIViLabppFKMaMb+rZOQg2yfpKQQdDHYz+9Uf4uP+Ir4AN4x6CsFNqeV+J3vd0BpnHLrHegpBF0pgt8CmfzrtakSVeMejpxCsGLbdDSQ3cAdyInTe6SmETr/2u4HEJh5PXAlWSD2FB6hIytqW7UlhIpGj7qyqpxDaFNM3lNPGJl5dHnTKlO08w7f0OzkaBdE7PoT/Y4VfE5NMD/7qN7Yz07xjlH7VmWkGgWZOhyiEjm5vmGnu5Fo5gXdw+3bbWfHf1zsqzPQ1to+qegqhouF39v8KF1VP7vErbbetnkIwjmPoy1RkOcVaIlu7ZEunJ/TuToOTuEJwZPuFVjsyPYWQx91j2ZsVXtnuzl6AEO7PjOWscRDQ9GJADgaLbhop/jLPipL1NXhEjWOGpkLQ0/dPu0eFuzSQvpfNHYimQvCQ/y+GaZNk4Umcjs0hpakQjK2N0D4qg/etHP++iLpefdDThzSqKCwxhxOlya/1ugozaGxw/u87hSSQwOa0oKsQjuIzxfOFWXWXGLj1zO9kqh0hhRO+ZkqVMPl/JiEyAHB9bjR31FYoaSLJFbZuK8KD3ji3MnBXjwEKQ3ghov0x0jr5XVOif4b/HLZ+pfA3UDQAjgJ7uOyxdnF7izlRl5gUiFFwbICZL42Dvr5CX5LBi/fSgXp+DCrlp+gXAa5TEoGrbsBpD5mvFl/yXqBUUrG14b8f7LrEhPrQ/RNUXF2TgHkhza23gUJp8iUPpuJ1cXtobUH6JW6nwfOOcCb48wRe8Afs2m7AXfpqMMu6Gpfp7MUcML30oe+Mmt/CSSdHYcPhA0YzjdFEYSjJGqqtYXjaOhDPs72gWFkm8TvtFDXSIN39vo7JrpR5U5ueGqOOA7sejzunhEZZvttsdnkWiUrppRKX4uptipAXFXEWx2nFpDUnvNku0KynAuQZbopkDF1hDHY9iCVuSrg6vf4xGNZ/yGfN5EAzhRoNzmWIJM7/G1DS+IA0bTfsi2Ghbq0mEBy5+sdHH22XsGnnD7MKyA4CiZKOsWrwdl6IcW8Taba3OkHX+zH0IaJ2RN9YYahbag18TTcy7ZvX5tXQF7efeX8aX74qqsFEVQnKP7UhgrMXwwd04NkOn1CxONFoPaD+cPZ6wB7SY2iuFzDpAqb2m1c3dis5BnVR2g57FxFcOHMylCiYuIb1iUouA8ZTIHNdRUYXJgK/9NBOWIZtMWS1a3fOBtPNTOSzHdzra2HWdgB7fYn3C90YPlBsNLyb2dxkpAYKPzj0fdHZN3ECFBvZ6NcW63aowVzNZ5oh5QkHY2jQW+lIt410hipFfa1pnvhntZtHCeA7saXwepm96ltD9WomtmvS9xw5I2vJJa11FdyUQX+YnbPgrBtKTTJZLkZd/ptJXZiTgIrR/w3A5Vkefa6NiY26MU4Kj+Du/eOUEXzue6WXZSSmNMgfSfKIiEvTa2NYb7mnhPki9QhiDN/vP2YMES/KRvixyXBTnK5iGH10GuD339mlUTzcGH9yzIp1GkXpusiO6lUz9knmeTY9XPD1ljO+T4tst/0rv7PgcDgcDofD4XA4HA6Hw+FwOBwOh8PhcDgcDofD4XA4HA7H3+F//miVqXbTGOQAAAAASUVORK5CYII=;" parent="1" vertex="1">
          <mxGeometry x="703" y="300" width="40" height="40" as="geometry" />
        </mxCell>
        <mxCell id="BzCf6zOfXmueHMT2T-eW-55" style="edgeStyle=orthogonalEdgeStyle;rounded=0;orthogonalLoop=1;jettySize=auto;html=1;exitX=0.25;exitY=1;exitDx=0;exitDy=0;exitPerimeter=0;entryX=0.4;entryY=0.1;entryDx=0;entryDy=0;entryPerimeter=0;strokeColor=#0A22FF;" parent="1" source="BzCf6zOfXmueHMT2T-eW-10" target="BzCf6zOfXmueHMT2T-eW-3" edge="1">
          <mxGeometry relative="1" as="geometry" />
        </mxCell>
        <mxCell id="BzCf6zOfXmueHMT2T-eW-59" value="1" style="ellipse;whiteSpace=wrap;html=1;aspect=fixed;" parent="1" vertex="1">
          <mxGeometry x="110" y="310" width="20" height="20" as="geometry" />
        </mxCell>
        <mxCell id="BzCf6zOfXmueHMT2T-eW-63" value="2" style="ellipse;whiteSpace=wrap;html=1;aspect=fixed;" parent="1" vertex="1">
          <mxGeometry x="310" y="160" width="20" height="20" as="geometry" />
        </mxCell>
        <mxCell id="BzCf6zOfXmueHMT2T-eW-66" value="3" style="ellipse;whiteSpace=wrap;html=1;aspect=fixed;" parent="1" vertex="1">
          <mxGeometry x="420" y="140" width="20" height="20" as="geometry" />
        </mxCell>
        <mxCell id="BzCf6zOfXmueHMT2T-eW-67" value="4" style="ellipse;whiteSpace=wrap;html=1;aspect=fixed;" parent="1" vertex="1">
          <mxGeometry x="683" y="250" width="20" height="20" as="geometry" />
        </mxCell>
        <mxCell id="BzCf6zOfXmueHMT2T-eW-68" value="5" style="ellipse;whiteSpace=wrap;html=1;aspect=fixed;" parent="1" vertex="1">
          <mxGeometry x="750" y="160" width="20" height="20" as="geometry" />
        </mxCell>
        <mxCell id="BzCf6zOfXmueHMT2T-eW-69" value="5" style="ellipse;whiteSpace=wrap;html=1;aspect=fixed;" parent="1" vertex="1">
          <mxGeometry x="520" y="60" width="20" height="20" as="geometry" />
        </mxCell>
        <mxCell id="BzCf6zOfXmueHMT2T-eW-70" value="6" style="ellipse;whiteSpace=wrap;html=1;aspect=fixed;" parent="1" vertex="1">
          <mxGeometry x="320" y="60" width="20" height="20" as="geometry" />
        </mxCell>
        <mxCell id="BzCf6zOfXmueHMT2T-eW-71" value="7" style="ellipse;whiteSpace=wrap;html=1;aspect=fixed;" parent="1" vertex="1">
          <mxGeometry x="230" y="250" width="20" height="20" as="geometry" />
        </mxCell>
      </root>
    </mxGraphModel>
  </diagram>
</mxfile>
